<svg width="380" height="416" viewBox="0 0 380 416" fill="none" xmlns="http://www.w3.org/2000/svg">
<path d="M85.7275 325.273C85.7275 325.273 87.844 332.683 88.9023 366.551C88.9273 367.351 88.8846 368.052 88.7842 368.662C88.8619 369.711 88.9033 370.77 88.9033 371.839C88.9032 395.804 69.002 415.232 44.4521 415.232C19.9021 415.232 7.60386e-05 395.804 0 371.839C0 368.094 0.485855 364.46 1.39941 360.994C6.19719 342.787 22.7948 329.206 42.7607 328.477C47.8685 327.828 54.788 326.992 61.3848 326.332C71.9489 325.276 85.6768 325.273 85.7275 325.273Z" fill="white"/>
<mask id="path-2-inside-1_6358_431" fill="white">
<path d="M0 117.728V252.142C7.62031 287.708 35.2792 294.48 48.6853 293.418C80.0132 292.571 89.2564 264.136 89.962 250.025V141.012C91.6554 127.465 96.3122 119.848 98.429 117.734C148.173 60.5755 227.551 90.21 256.127 117.734C305.236 161.767 297.051 224.275 286.82 250.025C263.959 312.681 206.383 330.461 176.749 331.52C123.83 333.41 129.122 372.444 134.414 389.73C147.114 431.219 220.848 412.662 256.127 398.197C301.637 382.322 346.089 328.345 358.79 299.768C395.198 231.186 375.018 149.836 359.848 117.734C309.046 16.9763 209.558 -2.56843 166.165 0.253903C55.2472 4.48741 9.52539 80.3318 0 117.728Z"/>
</mask>
<path d="M0 252.142H-231.322V276.645L-226.189 300.604L0 252.142ZM0 117.728L-224.164 60.6293L-231.322 88.7299V117.728H0ZM166.165 0.253903L174.988 231.408L178.085 231.289L181.179 231.088L166.165 0.253903ZM359.848 117.734L568.994 18.9004L567.731 16.2284L566.4 13.5895L359.848 117.734ZM358.79 299.768L154.473 191.304L150.685 198.438L147.405 205.82L358.79 299.768ZM256.127 398.197L179.936 179.783L174.096 181.82L168.374 184.166L256.127 398.197ZM134.414 389.73L355.604 322.019L355.604 322.019L134.414 389.73ZM176.749 331.52L185.005 562.694H185.005L176.749 331.52ZM286.82 250.025L71.8447 164.611L70.6343 167.657L69.5108 170.736L286.82 250.025ZM256.127 117.734L95.6547 284.343L98.6272 287.206L101.7 289.961L256.127 117.734ZM98.429 117.734L261.923 281.379L267.629 275.678L272.924 269.593L98.429 117.734ZM89.962 141.012L-139.574 112.32L-141.36 126.61V141.012H89.962ZM89.962 250.025L320.995 261.576L321.284 255.804V250.025H89.962ZM48.6853 293.418L42.4356 62.1805L36.4159 62.3432L30.4128 62.8188L48.6853 293.418ZM0 252.142H231.322V117.728H0H-231.322V252.142H0ZM0 117.728L224.164 174.826C220.671 188.54 216.359 197.101 213.459 202C210.157 207.58 206.082 212.777 200.971 217.441C195.571 222.367 189.411 226.309 183.199 228.88C176.863 231.502 173.446 231.467 174.988 231.408L166.165 0.253903L157.342 -230.9C-78.0733 -221.915 -195.252 -52.8773 -224.164 60.6293L0 117.728ZM166.165 0.253903L181.179 231.088C175.463 231.46 171.59 231.309 169.598 231.177C167.448 231.035 166.101 230.822 165.395 230.691C164.176 230.465 163.315 230.197 162.281 229.714C161.026 229.127 158.934 227.923 156.676 225.822C154.162 223.483 153.169 221.628 153.295 221.878L359.848 117.734L566.4 13.5895C461.01 -195.434 254.94 -237.331 151.151 -230.58L166.165 0.253903ZM359.848 117.734L150.702 216.567C148.901 212.755 148.01 210.336 147.716 209.512C147.375 208.553 147.323 208.284 147.41 208.617C147.639 209.492 147.872 210.801 147.946 211.82C148.02 212.851 147.8 211.687 148.334 208.516C148.904 205.128 150.452 198.878 154.473 191.304L358.79 299.768L563.106 408.233C607.444 324.712 613.894 240.561 609.375 178.321C604.945 117.288 588.917 61.061 568.994 18.9004L359.848 117.734ZM358.79 299.768L147.405 205.82C150.287 199.335 152.696 195.134 153.722 193.407C154.881 191.456 155.555 190.519 155.578 190.486C155.64 190.4 155.409 190.725 154.906 191.33C154.412 191.924 153.861 192.54 153.329 193.091C151.958 194.51 152.125 194.062 154.556 192.315C156.5 190.917 164.926 185.019 179.936 179.783L256.127 398.197L332.318 616.612C403.571 591.756 455.877 545.808 486.195 514.4C516.917 482.573 549.632 439.937 570.174 393.717L358.79 299.768ZM256.127 398.197L168.374 184.166C168.854 183.969 167.569 184.475 166.033 184.873C163.929 185.417 167.038 184.336 174.877 183.932C179.821 183.677 207.404 182.259 243.084 197.181C287.694 215.839 335.79 257.293 355.604 322.019L134.414 389.73L-86.7764 457.442C-60.6122 542.912 1.46343 597.605 64.573 623.999C118.752 646.659 169.355 647.477 198.729 645.961C258.524 642.874 312.581 625.061 343.88 612.229L256.127 398.197ZM134.414 389.73L355.604 322.019C357.905 329.535 361.056 341.816 362.15 358.017C363.198 373.519 363.059 402.708 349.922 437.196C335.252 475.706 307.44 512.064 267.715 536.348C231.342 558.583 198.986 562.195 185.005 562.694L176.749 331.52L168.493 100.345C128.052 101.789 76.5134 110.99 26.4142 141.615C-27.036 174.29 -63.1172 221.841 -82.4172 272.506C-115.33 358.908 -93.4501 435.641 -86.7764 457.442L134.414 389.73ZM176.749 331.52L185.005 562.694C271.564 559.603 437.901 510.828 504.129 329.313L286.82 250.025L69.5108 170.736C78.5831 145.872 97.2268 126.218 116.458 114.83C131.626 105.848 148.109 101.073 168.493 100.345L176.749 331.52ZM286.82 250.025L501.795 335.439C530.445 263.333 561.49 80.8427 410.554 -54.4936L256.127 117.734L101.7 289.961C77.1339 267.934 66.4292 238.894 63.9326 217.287C62.8111 207.581 63.22 199.241 64.205 192.279C65.1095 185.886 67.0554 176.664 71.8447 164.611L286.82 250.025ZM256.127 117.734L416.599 -48.8754C364.97 -98.6027 291.203 -133.896 213.908 -143.558C126.501 -154.484 10.5889 -133.697 -76.0661 -34.1262L98.429 117.734L272.924 269.593C257.528 287.284 236.048 301.79 211.434 309.777C188.429 317.243 168.954 317.068 156.524 315.514C144.348 313.992 135.052 310.739 127.974 307.41C121.915 304.56 110.025 298.184 95.6547 284.343L256.127 117.734ZM98.429 117.734L-65.0649 -45.9113C-114.956 3.93417 -133.823 66.3128 -139.574 112.32L89.962 141.012L319.498 169.704C317.775 183.49 313.949 199.041 306.946 215.528C303.486 223.671 298.925 232.809 292.881 242.527C287.81 250.68 277.897 265.42 261.923 281.379L98.429 117.734ZM89.962 141.012H-141.36V250.025H89.962H321.284V141.012H89.962ZM89.962 250.025L-141.072 238.473C-139.73 211.64 -132.312 177.612 -108.402 143.617C-94.9781 124.531 -74.7736 103.496 -46.1269 87.1996C-16.7219 70.4721 14.261 62.9419 42.4356 62.1805L48.6853 293.418L54.935 524.656C152.008 522.032 226.691 471.373 270.016 409.774C306.556 357.822 318.948 302.521 320.995 261.576L89.962 250.025ZM48.6853 293.418L30.4128 62.8188C67.201 59.9038 107.782 67.0719 145.389 90.741C190.454 119.103 217.394 162.633 226.189 203.679L0 252.142L-226.189 300.604C-209.774 377.216 -165.194 441.915 -101.043 482.29C-44.3502 517.971 16.7635 527.995 66.9578 524.017L48.6853 293.418Z" fill="white" mask="url(#path-2-inside-1_6358_431)"/>
</svg>
